# xmcd
#
# Track frame offsets: 
#        150
#        3582
#        29904
#        65412
#        85740
#        106669
#        130762
#        157900
#        200079
#        225728
#        254500
#        273464
#        302865
#        333773
#
# Disc length: 4548 seconds
#
# Revision: 0
# Processed by: cddbd v1.5.2PL0 Copyright (c) Steve Scherf et al.
# Submitted via: ExactAudioCopyFreeDBPlugin 1.0
#
DISCID=bd11c20e
DTITLE=Fabrizio Poggi and Chicken mambo - Live In Ttexas
DYEAR=1900
DGENRE=Blues
TTITLE0=Intro
TTITLE1=Mojo
TTITLE2=Hey old mama
TTITLE3=Deep In My Heart
TTITLE4=Hole In Your Sole
TTITLE5=Save me Jesus
TTITLE6=King Biscuit time
TTITLE7=Midnight train
TTITLE8=Mainline
TTITLE9=Mexican Moon
TTITLE10=Song for Angelina
TTITLE11=I'm on the Road Again
TTITLE12=I Wish to be in Texas
TTITLE13=Thanks
EXTD=
EXTT0=
EXTT1=
EXTT2=
EXTT3=
EXTT4=
EXTT5=
EXTT6=
EXTT7=
EXTT8=
EXTT9=
EXTT10=
EXTT11=
EXTT12=
EXTT13=
PLAYORDER=
